<?xml version="1.0" standalone="no"?>
<!DOCTYPE svg PUBLIC "-//W3C//DTD SVG 20010904//EN"
 "http://www.w3.org/TR/2001/REC-SVG-20010904/DTD/svg10.dtd">
<svg version="1.0" xmlns="http://www.w3.org/2000/svg"
 width="548.000000pt" height="548.000000pt" viewBox="0 0 548.000000 548.000000"
 preserveAspectRatio="xMidYMid meet">
<metadata>
Created by potrace 1.14, written by Peter Selinger 2001-2017
</metadata>
<g transform="translate(0.000000,548.000000) scale(0.100000,-0.100000)"
fill="#000000" stroke="none">
<path d="M2549 5466 c-2 -2 -38 -6 -79 -10 -41 -3 -86 -8 -100 -11 -183 -31
-203 -35 -280 -54 -25 -7 -53 -14 -63 -16 -11 -2 -68 -20 -128 -40 -507 -163
-976 -494 -1312 -926 -308 -397 -500 -878 -555 -1394 -9 -93 -9 -451 1 -545 4
-41 8 -82 9 -90 0 -8 5 -37 10 -65 5 -27 11 -66 14 -85 3 -19 10 -53 16 -75 5
-22 12 -51 14 -65 20 -115 114 -370 205 -556 134 -274 298 -503 514 -719 229
-229 429 -374 720 -522 181 -93 469 -192 665 -229 14 -2 36 -7 50 -9 167 -34
306 -44 545 -40 127 2 248 6 270 10 134 19 350 61 365 70 4 2 20 7 36 9 46 9
207 62 307 103 93 37 311 143 357 173 14 10 72 48 130 86 202 132 421 326 570
504 30 36 58 67 61 70 17 15 174 249 224 333 74 128 200 400 209 452 1 6 4 15
8 20 19 32 101 358 114 450 3 28 8 59 10 70 22 115 29 583 11 670 -3 11 -8 45
-11 75 -7 61 -15 107 -21 130 -2 8 -7 31 -10 50 -31 190 -145 510 -259 725
-44 84 -141 244 -168 280 -5 6 -33 44 -64 85 -188 250 -430 476 -689 645 -165
108 -321 188 -540 275 -60 24 -224 76 -270 85 -11 3 -60 13 -110 24 -49 11
-121 25 -160 30 -38 6 -86 13 -105 17 -39 6 -504 16 -511 10z"/>
</g>
</svg>
